
<?xml version="1.0" encoding="UTF-8"?>
<svg width="1200pt" height="1200pt" version="1.1" viewBox="0 0 1200 1200" xmlns="http://www.w3.org/2000/svg">
 <path d="m599.45 50.102c-6.332 0.28516-11.352 5.4336-11.473 11.77v128.07h-16.602v146.78h-28.562v32.715h-20.164v67.676h-16.648v98.633h-13.531v389.8h-16.988v142.48l-51.609-0.003906v59.422h-18.359c-6.1875 0.023438-11.188 5.043-11.188 11.23 0 6.1836 5 11.207 11.188 11.23h388.96c6.1836-0.023438 11.188-5.0469 11.188-11.23 0-6.1875-5.0039-11.207-11.188-11.23h-18.312v-59.422h-51.656v-142.48l-16.988 0.003907v-389.8h-13.531v-98.633h-16.648v-67.676h-20.164v-32.715h-28.516v-146.78h-16.652v-128.07c-0.058593-3.2422-1.4297-6.3203-3.793-8.5352-2.3633-2.2148-5.5234-3.3828-8.7617-3.2344zm-7.9375 160.06h16.895v128.81h-16.895zm-28.516 146.73h73.926v14.797h-73.926zm-17.914 35.008h109.77v45.215l-35.02 0.003906v630.91h-39.742v-630.91h-35.008zm-16.648 67.676h29.242v76.172l-29.246 0.003906zm113.87 0h29.195v76.172h-29.195zm-127.4 98.582h42.773v367.38l-42.777 0.007813zm127.4 0h42.773v367.38l-42.777 0.007813zm-144.43 389.84h59.812v120.02h-59.812zm144.43 0h59.766v120.02l-59.77 0.007813zm-196.04 142.48h307.42v36.961l-307.42 0.007812z"/>
</svg>
