<?xml version="1.0" encoding="UTF-8"?>
<svg width="700pt" height="700pt" version="1.1" viewBox="0 0 700 700" xmlns="http://www.w3.org/2000/svg" xmlns:xlink="http://www.w3.org/1999/xlink">
 <defs>
  <symbol id="u" overflow="visible">
   <path d="m14.656-0.875c-0.76172 0.39844-1.5547 0.69531-2.375 0.89062-0.8125 0.19531-1.6641 0.29688-2.5469 0.29688-2.6562 0-4.7617-0.73828-6.3125-2.2188-1.5547-1.4883-2.3281-3.5039-2.3281-6.0469 0-2.5508 0.77344-4.5664 2.3281-6.0469 1.5508-1.4883 3.6562-2.2344 6.3125-2.2344 0.88281 0 1.7344 0.10156 2.5469 0.29688 0.82031 0.19922 1.6133 0.49609 2.375 0.89062v3.2969c-0.76172-0.51953-1.5117-0.89844-2.25-1.1406-0.74219-0.23828-1.5234-0.35938-2.3438-0.35938-1.4688 0-2.625 0.46875-3.4688 1.4062-0.83594 0.9375-1.25 2.2344-1.25 3.8906 0 1.6484 0.41406 2.9375 1.25 3.875 0.84375 0.9375 2 1.4062 3.4688 1.4062 0.82031 0 1.6016-0.11719 2.3438-0.35938 0.73828-0.23828 1.4883-0.61719 2.25-1.1406z"/>
  </symbol>
  <symbol id="b" overflow="visible">
   <path d="m10.719-8.7031c-0.33594-0.15625-0.66797-0.26953-1-0.34375-0.32422-0.082031-0.65625-0.125-1-0.125-0.98047 0-1.7344 0.32031-2.2656 0.95312-0.53125 0.625-0.79688 1.5273-0.79688 2.7031v5.5156h-3.8125v-11.969h3.8125v1.9688c0.48828-0.78125 1.0508-1.3477 1.6875-1.7031 0.64453-0.36328 1.4102-0.54688 2.2969-0.54688 0.13281 0 0.27344 0.007812 0.42188 0.015625 0.14453 0.011719 0.36328 0.03125 0.65625 0.0625z"/>
  </symbol>
  <symbol id="a" overflow="visible">
   <path d="m13.781-6.0156v1.0938h-8.9375c0.09375 0.89844 0.41406 1.5703 0.96875 2.0156 0.55078 0.44922 1.3281 0.67188 2.3281 0.67188 0.80078 0 1.625-0.11719 2.4688-0.35938 0.84375-0.23828 1.7109-0.59766 2.6094-1.0781v2.9531c-0.90625 0.33594-1.8125 0.58984-2.7188 0.76562s-1.8125 0.26562-2.7188 0.26562c-2.1562 0-3.8398-0.54688-5.0469-1.6406-1.1992-1.1016-1.7969-2.6484-1.7969-4.6406 0-1.9453 0.58594-3.4766 1.7656-4.5938 1.1758-1.125 2.8008-1.6875 4.875-1.6875 1.875 0 3.375 0.57031 4.5 1.7031 1.1328 1.125 1.7031 2.6367 1.7031 4.5312zm-3.9375-1.2656c0-0.72656-0.21484-1.3125-0.64062-1.75-0.41797-0.44531-0.96875-0.67188-1.6562-0.67188-0.74219 0-1.3438 0.21094-1.8125 0.625-0.46094 0.41797-0.74609 1.0156-0.85938 1.7969z"/>
  </symbol>
  <symbol id="k" overflow="visible">
   <path d="m7.2031-5.3906c-0.80469 0-1.4062 0.13672-1.8125 0.40625-0.39844 0.27344-0.59375 0.67188-0.59375 1.2031 0 0.48047 0.16016 0.85938 0.48438 1.1406 0.32031 0.27344 0.77344 0.40625 1.3594 0.40625 0.71875 0 1.3203-0.25391 1.8125-0.76562 0.48828-0.51953 0.73438-1.1719 0.73438-1.9531v-0.4375zm5.8438-1.4375v6.8281h-3.8594v-1.7656c-0.51172 0.71875-1.0898 1.2461-1.7344 1.5781-0.63672 0.33203-1.418 0.5-2.3438 0.5-1.2422 0-2.2461-0.35938-3.0156-1.0781-0.77344-0.72656-1.1562-1.6719-1.1562-2.8281 0-1.3945 0.47656-2.4219 1.4375-3.0781 0.96875-0.65625 2.4883-0.98438 4.5625-0.98438h2.25v-0.29688c0-0.60156-0.24219-1.0469-0.71875-1.3281-0.48047-0.28125-1.2266-0.42188-2.2344-0.42188-0.8125 0-1.5742 0.085937-2.2812 0.25-0.71094 0.15625-1.3672 0.40234-1.9688 0.73438v-2.9219c0.82031-0.19531 1.6445-0.34766 2.4688-0.45312 0.82031-0.10156 1.6484-0.15625 2.4844-0.15625 2.1562 0 3.7109 0.42969 4.6719 1.2812 0.95703 0.84375 1.4375 2.2266 1.4375 4.1406z"/>
  </symbol>
  <symbol id="c" overflow="visible">
   <path d="m6.0156-15.359v3.3906h3.9375v2.7344h-3.9375v5.0781c0 0.55469 0.10938 0.92969 0.32812 1.125 0.21875 0.19922 0.65625 0.29688 1.3125 0.29688h1.9688v2.7344h-3.2812c-1.5117 0-2.5859-0.3125-3.2188-0.9375-0.625-0.63281-0.9375-1.707-0.9375-3.2188v-5.0781h-1.9062v-2.7344h1.9062v-3.3906z"/>
  </symbol>
  <symbol id="j" overflow="visible">
   <path d="m9.9688-10.219v-6.4062h3.8594v16.625h-3.8594v-1.7344c-0.52344 0.71094-1.1016 1.2305-1.7344 1.5625-0.63672 0.32031-1.3711 0.48438-2.2031 0.48438-1.4688 0-2.6797-0.58203-3.625-1.75-0.94922-1.1758-1.4219-2.6875-1.4219-4.5312s0.47266-3.3477 1.4219-4.5156c0.94531-1.1758 2.1562-1.7656 3.625-1.7656 0.83203 0 1.5664 0.16797 2.2031 0.5 0.63281 0.32422 1.2109 0.83594 1.7344 1.5312zm-2.5156 7.75c0.82031 0 1.4453-0.29688 1.875-0.89062 0.42578-0.60156 0.64062-1.4727 0.64062-2.6094 0-1.1445-0.21484-2.0156-0.64062-2.6094-0.42969-0.59375-1.0547-0.89062-1.875-0.89062-0.8125 0-1.4336 0.29688-1.8594 0.89062-0.42969 0.59375-0.64062 1.4648-0.64062 2.6094 0 1.1367 0.21094 2.0078 0.64062 2.6094 0.42578 0.59375 1.0469 0.89062 1.8594 0.89062z"/>
  </symbol>
  <symbol id="i" overflow="visible">
   <path d="m8.2031-2.4688c0.82031 0 1.4453-0.29688 1.875-0.89062 0.42578-0.60156 0.64062-1.4727 0.64062-2.6094 0-1.1445-0.21484-2.0156-0.64062-2.6094-0.42969-0.59375-1.0547-0.89062-1.875-0.89062-0.82422 0-1.4531 0.30469-1.8906 0.90625-0.4375 0.59375-0.65625 1.4609-0.65625 2.5938 0 1.1367 0.21875 2.0078 0.65625 2.6094 0.4375 0.59375 1.0664 0.89062 1.8906 0.89062zm-2.5469-7.75c0.53125-0.69531 1.1133-1.207 1.75-1.5312 0.64453-0.33203 1.3828-0.5 2.2188-0.5 1.4688 0 2.6758 0.58984 3.625 1.7656 0.94531 1.168 1.4219 2.6719 1.4219 4.5156s-0.47656 3.3555-1.4219 4.5312c-0.94922 1.168-2.1562 1.75-3.625 1.75-0.83594 0-1.5742-0.16797-2.2188-0.5-0.63672-0.33203-1.2188-0.84766-1.75-1.5469v1.7344h-3.8125v-16.625h3.8125z"/>
  </symbol>
  <symbol id="h" overflow="visible">
   <path d="m0.26562-11.969h3.8281l3.2188 8.125 2.7344-8.125h3.8125l-5.0312 13.094c-0.5 1.332-1.0898 2.2656-1.7656 2.7969-0.66797 0.53125-1.5547 0.79688-2.6562 0.79688h-2.2188v-2.5h1.2031c0.64453 0 1.1133-0.10547 1.4062-0.3125 0.30078-0.21094 0.53125-0.57812 0.6875-1.1094l0.10938-0.34375z"/>
  </symbol>
  <symbol id="g" overflow="visible">
   <path d="m0.10938-15.953h4.125l4.2344 11.781 4.2188-11.781h4.1406l-5.9062 15.953h-4.9062z"/>
  </symbol>
  <symbol id="t" overflow="visible">
   <path d="m1.8438-11.969h3.8125v11.969h-3.8125zm0-4.6562h3.8125v3.125h-3.8125z"/>
  </symbol>
  <symbol id="f" overflow="visible">
   <path d="m11.5-11.594v3.125c-0.52344-0.35156-1.043-0.61328-1.5625-0.78125-0.52344-0.17578-1.0625-0.26562-1.625-0.26562-1.0742 0-1.9062 0.3125-2.5 0.9375s-0.89062 1.4961-0.89062 2.6094c0 1.1172 0.29688 1.9844 0.89062 2.6094s1.4258 0.9375 2.5 0.9375c0.59375 0 1.1562-0.085937 1.6875-0.26562 0.53906-0.17578 1.0391-0.44141 1.5-0.79688v3.125c-0.59375 0.23047-1.1992 0.39453-1.8125 0.5-0.61719 0.11328-1.2344 0.17188-1.8594 0.17188-2.1562 0-3.8438-0.55078-5.0625-1.6562-1.2188-1.1133-1.8281-2.6562-1.8281-4.625s0.60938-3.5039 1.8281-4.6094c1.2188-1.1133 2.9062-1.6719 5.0625-1.6719 0.625 0 1.2383 0.058594 1.8438 0.17188 0.61328 0.10547 1.2227 0.26562 1.8281 0.48438z"/>
  </symbol>
  <symbol id="d" overflow="visible">
   <path d="m7.5312-9.5156c-0.84375 0-1.4922 0.30859-1.9375 0.92188-0.44922 0.60547-0.67188 1.4805-0.67188 2.625 0 1.1484 0.22266 2.0273 0.67188 2.6406 0.44531 0.60547 1.0938 0.90625 1.9375 0.90625 0.83203 0 1.4688-0.30078 1.9062-0.90625 0.44531-0.61328 0.67188-1.4922 0.67188-2.6406 0-1.1445-0.22656-2.0195-0.67188-2.625-0.4375-0.61328-1.0742-0.92188-1.9062-0.92188zm0-2.7344c2.0508 0 3.6562 0.55859 4.8125 1.6719 1.1641 1.1055 1.75 2.6406 1.75 4.6094s-0.58594 3.5117-1.75 4.625c-1.1562 1.1055-2.7617 1.6562-4.8125 1.6562-2.0625 0-3.6797-0.55078-4.8438-1.6562-1.168-1.1133-1.75-2.6562-1.75-4.625s0.58203-3.5039 1.75-4.6094c1.1641-1.1133 2.7812-1.6719 4.8438-1.6719z"/>
  </symbol>
  <symbol id="e" overflow="visible">
   <path d="m1.7031-4.6562v-7.3125h3.8438v1.2031c0 0.64844-0.007813 1.4609-0.015625 2.4375v1.9688c0 0.96094 0.023438 1.6523 0.078125 2.0781 0.050781 0.41797 0.13281 0.72656 0.25 0.92188 0.15625 0.25 0.35938 0.44531 0.60938 0.57812 0.25781 0.13672 0.55078 0.20312 0.875 0.20312 0.80078 0 1.4258-0.30469 1.875-0.92188 0.45703-0.61328 0.6875-1.4688 0.6875-2.5625v-5.9062h3.8281v11.969h-3.8281v-1.7344c-0.57422 0.69922-1.1836 1.2148-1.8281 1.5469-0.64844 0.33203-1.3555 0.5-2.125 0.5-1.3867 0-2.4453-0.42188-3.1719-1.2656-0.71875-0.85156-1.0781-2.0859-1.0781-3.7031z"/>
  </symbol>
  <symbol id="s" overflow="visible">
   <path d="m1.8438-16.625h3.8125v16.625h-3.8125z"/>
  </symbol>
  <symbol id="r" overflow="visible">
   <path d="m9.7031-16.625v2.5156h-2.1094c-0.54297 0-0.92188 0.10156-1.1406 0.29688-0.21094 0.19922-0.3125 0.53906-0.3125 1.0156v0.82812h3.2656v2.7344h-3.2656v9.2344h-3.8281v-9.2344h-1.8906v-2.7344h1.8906v-0.82812c0-1.3008 0.36328-2.2656 1.0938-2.8906 0.72656-0.625 1.8516-0.9375 3.375-0.9375z"/>
  </symbol>
  <symbol id="q" overflow="visible">
   <path d="m12.922-9.9688c0.48828-0.75 1.0625-1.3164 1.7188-1.7031 0.66406-0.38281 1.3984-0.57812 2.2031-0.57812 1.375 0 2.4219 0.42969 3.1406 1.2812 0.71875 0.84375 1.0781 2.0742 1.0781 3.6875v7.2812h-3.8438v-6.2344c0.007812-0.09375 0.015625-0.1875 0.015625-0.28125v-0.4375c0-0.84375-0.125-1.457-0.375-1.8438-0.25-0.38281-0.65234-0.57812-1.2031-0.57812-0.73047 0-1.293 0.30469-1.6875 0.90625-0.38672 0.59375-0.58984 1.4609-0.60938 2.5938v5.875h-3.8438v-6.2344c0-1.3203-0.11719-2.1758-0.34375-2.5625-0.23047-0.38281-0.63672-0.57812-1.2188-0.57812-0.73047 0-1.2969 0.30469-1.7031 0.90625-0.39844 0.60547-0.59375 1.4648-0.59375 2.5781v5.8906h-3.8438v-11.969h3.8438v1.75c0.46875-0.66406 1.0039-1.1719 1.6094-1.5156 0.61328-0.34375 1.2891-0.51562 2.0312-0.51562 0.82031 0 1.5508 0.19922 2.1875 0.59375 0.63281 0.39844 1.1133 0.96094 1.4375 1.6875z"/>
  </symbol>
  <symbol id="p" overflow="visible">
   <path d="m13.859-7.2812v7.2812h-3.8438v-5.5469c0-1.0508-0.027344-1.7695-0.078125-2.1562-0.042969-0.39453-0.12109-0.6875-0.23438-0.875-0.14844-0.25-0.35156-0.44141-0.60938-0.57812-0.25-0.14453-0.54297-0.21875-0.875-0.21875-0.79297 0-1.418 0.3125-1.875 0.9375-0.46094 0.61719-0.6875 1.4648-0.6875 2.5469v5.8906h-3.8125v-16.625h3.8125v6.4062c0.58203-0.69531 1.1953-1.207 1.8438-1.5312 0.64453-0.33203 1.3594-0.5 2.1406-0.5 1.3828 0 2.4297 0.42969 3.1406 1.2812 0.71875 0.84375 1.0781 2.0742 1.0781 3.6875z"/>
  </symbol>
  <symbol id="o" overflow="visible">
   <path d="m2.0156-15.953h4.5781l5.8125 10.938v-10.938h3.8906v15.953h-4.5938l-5.7969-10.938v10.938h-3.8906z"/>
  </symbol>
  <symbol id="n" overflow="visible">
   <path d="m13.859-7.2812v7.2812h-3.8438v-5.5781c0-1.0312-0.027344-1.7383-0.078125-2.125-0.042969-0.39453-0.12109-0.6875-0.23438-0.875-0.14844-0.25-0.35156-0.44141-0.60938-0.57812-0.25-0.14453-0.54297-0.21875-0.875-0.21875-0.79297 0-1.418 0.3125-1.875 0.9375-0.46094 0.61719-0.6875 1.4648-0.6875 2.5469v5.8906h-3.8125v-11.969h3.8125v1.75c0.58203-0.69531 1.1953-1.207 1.8438-1.5312 0.64453-0.33203 1.3594-0.5 2.1406-0.5 1.3828 0 2.4297 0.42969 3.1406 1.2812 0.71875 0.84375 1.0781 2.0742 1.0781 3.6875z"/>
  </symbol>
  <symbol id="m" overflow="visible">
   <path d="m2.0156-15.953h6.8125c2.0312 0 3.5859 0.45312 4.6719 1.3594 1.0938 0.89844 1.6406 2.1797 1.6406 3.8438 0 1.6797-0.54688 2.9688-1.6406 3.875-1.0859 0.89844-2.6406 1.3438-4.6719 1.3438h-2.7031v5.5312h-4.1094zm4.1094 2.9844v4.4531h2.2656c0.80078 0 1.4141-0.19141 1.8438-0.57812 0.4375-0.38281 0.65625-0.9375 0.65625-1.6562 0-0.70703-0.21875-1.2539-0.65625-1.6406-0.42969-0.38281-1.043-0.57812-1.8438-0.57812z"/>
  </symbol>
  <symbol id="l" overflow="visible">
   <path d="m1.8438-11.969h3.8125v11.75c0 1.6016-0.38672 2.8281-1.1562 3.6719-0.76172 0.84375-1.8711 1.2656-3.3281 1.2656h-1.8906v-2.5h0.65625c0.72656 0 1.2266-0.16797 1.5-0.5 0.26953-0.32422 0.40625-0.96875 0.40625-1.9375zm0-4.6562h3.8125v3.125h-3.8125z"/>
  </symbol>
 </defs>
 <g>
  <path d="m404.63 172.04c-3.6211 0-6.5625-2.9414-6.5625-6.5625v-13.562c0-2.3398-1.8945-4.2344-4.2344-4.2383h-87.664c-2.3398 0.003906-4.2344 1.8984-4.2344 4.2383v13.562c0 3.6211-2.9414 6.5625-6.5625 6.5625-3.625 0-6.5625-2.9414-6.5625-6.5625v-13.562c0.003906-4.6055 1.832-9.0156 5.0898-12.273 3.2539-3.2539 7.6641-5.082 12.27-5.0898h87.664c4.6055 0.007813 9.0156 1.8359 12.27 5.0898 3.2578 3.2578 5.0859 7.668 5.0898 12.273v13.562c0 1.7383-0.69141 3.4102-1.9219 4.6406s-2.8984 1.9219-4.6406 1.9219z"/>
  <path d="m339.62 174.59c-3.6211 0-6.5625-2.9414-6.5625-6.5625v-6.8828c0-3.625 2.9414-6.5625 6.5625-6.5625 3.625 0 6.5625 2.9375 6.5625 6.5625v6.8828c0 3.6211-2.9375 6.5625-6.5625 6.5625z"/>
  <path d="m318.89 174.59c-3.625 0-6.5625-2.9414-6.5625-6.5625v-6.8828c0-3.625 2.9375-6.5625 6.5625-6.5625s6.5625 2.9375 6.5625 6.5625v6.8828c0 3.6211-2.9375 6.5625-6.5625 6.5625z"/>
  <path d="m360.38 174.59c-3.625 0-6.5625-2.9414-6.5625-6.5625v-6.8828c0-3.625 2.9375-6.5625 6.5625-6.5625 3.6211 0 6.5625 2.9375 6.5625 6.5625v6.8828c0 3.6211-2.9414 6.5625-6.5625 6.5625z"/>
  <path d="m381.11 174.59c-3.625 0-6.5625-2.9414-6.5625-6.5625v-6.8828c0-3.625 2.9375-6.5625 6.5625-6.5625s6.5625 2.9375 6.5625 6.5625v6.8828c0 3.6211-2.9375 6.5625-6.5625 6.5625z"/>
  <path d="m370.2 255.39h-40.391c-3.625 0-6.5625-2.9375-6.5625-6.5625s2.9375-6.5625 6.5625-6.5625h40.391c3.625 0 6.5625 2.9375 6.5625 6.5625s-2.9375 6.5625-6.5625 6.5625z"/>
  <path d="m331.99 227.73c-3.625 0-6.5625-2.9375-6.5625-6.5625v-6.8867c0-3.6211 2.9375-6.5625 6.5625-6.5625s6.5625 2.9414 6.5625 6.5625v6.8867c0 3.625-2.9375 6.5625-6.5625 6.5625z"/>
  <path d="m368.01 227.73c-3.625 0-6.5625-2.9375-6.5625-6.5625v-6.8867c0-3.6211 2.9375-6.5625 6.5625-6.5625s6.5625 2.9414 6.5625 6.5625v6.8867c0 3.625-2.9375 6.5625-6.5625 6.5625z"/>
  <path d="m350 227.73c-3.625 0-6.5625-2.9375-6.5625-6.5625v-6.8867c0-3.6211 2.9375-6.5625 6.5625-6.5625s6.5625 2.9414 6.5625 6.5625v6.8867c0 3.625-2.9375 6.5625-6.5625 6.5625z"/>
  <path d="m464.14 544.69h-12.688v-258.47c-0.007813-3.4492-1.1797-6.793-3.3242-9.4922-2.1406-2.6992-5.1328-4.5977-8.4883-5.3828v-51.691c-0.011719-3.293-1.0859-6.4922-3.0664-9.125-1.9766-2.6328-4.75-4.5547-7.9062-5.4844v-3.8867c-0.015624-4.8242-1.8047-9.4727-5.0273-13.062-3.2227-3.5898-7.6523-5.8672-12.449-6.3984v-29.75c0-4.6055-1.8281-9.0195-5.082-12.277-3.2578-3.2539-7.6719-5.0859-12.277-5.0859h-13.035c-5.7305-10.32-8.2773-37.625-8.75-57.102 3.4102-0.5625 5.8008-3.6797 5.457-7.1211-0.49219-3.4492-3.4883-5.9844-6.9727-5.8984h-5.5156c-0.95312 0-1.8203-0.53516-2.25-1.3828l-2.8438-5.6406c-2.207-4.3789-3.3555-9.2188-3.3555-14.125v-33.105c0-3.625-2.9375-6.5625-6.5625-6.5625s-6.5625 2.9375-6.5625 6.5625v33.105c0 4.9023-1.1484 9.7344-3.3555 14.113l-2.8438 5.6406c-0.42578 0.84766-1.2969 1.3828-2.25 1.3828h-5.5156c-3.4844-0.089844-6.4805 2.4453-6.9727 5.8945-0.34375 3.4453 2.0469 6.5586 5.457 7.125-0.47266 19.496-3.0195 46.781-8.75 57.102h-13.039c-4.6055 0-9.0195 1.8281-12.277 5.0859-3.2539 3.2539-5.082 7.6719-5.082 12.273v29.75c-4.7969 0.53125-9.2266 2.8125-12.449 6.4023-3.2227 3.5898-5.0117 8.2383-5.0273 13.062v3.8867c-3.1562 0.92578-5.9297 2.8516-7.9102 5.4844-1.9766 2.6289-3.0508 5.832-3.0625 9.1211v51.707c-3.3555 0.78516-6.3477 2.6836-8.4883 5.3828-2.1445 2.6992-3.3164 6.043-3.3242 9.4922v258.47h-12.688c-3.625 0-6.5625 2.9375-6.5625 6.5625s2.9375 6.5625 6.5625 6.5625h228.28c3.6211 0 6.5625-2.9375 6.5625-6.5625s-2.9414-6.5625-6.5625-6.5625zm-54.488-299.69c-3.625 0-6.5625 2.9375-6.5625 6.5625v19.344h-11.039v-51.254c0-1.2109 0.98047-2.1875 2.1875-2.1875h30.094c0.57812 0 1.1367 0.23047 1.5469 0.64062 0.41016 0.41016 0.64062 0.96484 0.64062 1.5469v51.254h-10.305v-19.344c0-3.625-2.9375-6.5625-6.5625-6.5625zm-68.559-167.43h17.824c0.29688 13.406 1.6758 40.117 7.7266 56.996h-10.078v-40.504c0-3.625-2.9375-6.5625-6.5625-6.5625s-6.5625 2.9375-6.5625 6.5625v40.504h-10.062c6.0391-16.879 7.4375-43.594 7.7148-56.996zm-39.156 74.375c0-2.3398 1.8945-4.2344 4.2344-4.2383h87.664c2.3398 0.003907 4.2344 1.8984 4.2344 4.2383v29.543h-96.133zm-11.215 93.055c-3.625 0-6.5625 2.9375-6.5625 6.5625v19.344h-10.672v-51.254c0-1.2109 0.98047-2.1875 2.1875-2.1875h30.094c0.57812 0 1.1367 0.23047 1.5469 0.64062 0.41016 0.41016 0.64062 0.96484 0.64062 1.5469v51.254h-10.672v-19.344c0-3.625-2.9375-6.5625-6.5625-6.5625zm28.328 299.69h-11.195v-227.84c0-3.625-2.9375-6.5625-6.5625-6.5625s-6.5625 2.9375-6.5625 6.5625v227.84h-8.0195v-227.84c0-3.625-2.9375-6.5625-6.5625-6.5625s-6.5625 2.9375-6.5625 6.5625v227.84h-11.922v-258.47c0-1.2109 0.98047-2.1875 2.1875-2.1875h53.012c0.58203 0 1.1367 0.23047 1.5469 0.64062s0.64062 0.96484 0.64062 1.5469zm59.875-273.12c-3.1836 0.91016-5.9883 2.832-7.9883 5.4727s-3.0898 5.8594-3.1055 9.1758v258.47h-11.266v-264.69c0-3.625-2.9375-6.5625-6.5625-6.5625s-6.5625 2.9375-6.5625 6.5625v264.69h-11.266v-258.47c-0.015625-3.3164-1.1055-6.5352-3.1055-9.1758s-4.8047-4.5625-7.9883-5.4727v-51.918c0-4.0625-1.6133-7.957-4.4844-10.828-2.875-2.8711-6.7695-4.4844-10.828-4.4844h-21.305v-3.1797l-0.003907-0.003906c0-3.6211 2.9375-6.5625 6.5625-6.5625h117.96c3.625 0 6.5625 2.9414 6.5625 6.5625v3.1797h-21.305l-0.003906 0.003906c-4.0586 0-7.9531 1.6133-10.828 4.4844-2.8711 2.8711-4.4844 6.7656-4.4844 10.828zm59.418 273.12h-11.559v-227.84c0-3.625-2.9375-6.5625-6.5625-6.5625s-6.5625 2.9375-6.5625 6.5625v227.84h-8.0195v-227.84c0-3.625-2.9375-6.5625-6.5625-6.5625s-6.5625 2.9375-6.5625 6.5625v227.84h-11.559v-258.47c0-1.2109 0.98047-2.1875 2.1875-2.1875h53.012c0.58203 0 1.1367 0.23047 1.5469 0.64062 0.41016 0.41016 0.64062 0.96484 0.64062 1.5469z"/>
  <use x="70" y="625.625" xlink:href="#u"/>
  <use x="86.054688" y="625.625" xlink:href="#b"/>
  <use x="96.839844" y="625.625" xlink:href="#a"/>
  <use x="111.679687" y="625.625" xlink:href="#k"/>
  <use x="126.4375" y="625.625" xlink:href="#c"/>
  <use x="136.894531" y="625.625" xlink:href="#a"/>
  <use x="151.730469" y="625.625" xlink:href="#j"/>
  <use x="175.007812" y="625.625" xlink:href="#i"/>
  <use x="190.664062" y="625.625" xlink:href="#h"/>
  <use x="212.539062" y="625.625" xlink:href="#g"/>
  <use x="229.46875" y="625.625" xlink:href="#t"/>
  <use x="236.96875" y="625.625" xlink:href="#f"/>
  <use x="249.933594" y="625.625" xlink:href="#c"/>
  <use x="260.390625" y="625.625" xlink:href="#d"/>
  <use x="275.421875" y="625.625" xlink:href="#b"/>
  <use x="286.207031" y="625.625" xlink:href="#e"/>
  <use x="301.78125" y="625.625" xlink:href="#s"/>
  <use x="309.277344" y="625.625" xlink:href="#a"/>
  <use x="324.117188" y="625.625" xlink:href="#b"/>
  <use x="70" y="647.5" xlink:href="#r"/>
  <use x="79.515625" y="647.5" xlink:href="#b"/>
  <use x="90.304688" y="647.5" xlink:href="#d"/>
  <use x="105.332031" y="647.5" xlink:href="#q"/>
  <use x="135.742188" y="647.5" xlink:href="#c"/>
  <use x="146.199219" y="647.5" xlink:href="#p"/>
  <use x="161.773438" y="647.5" xlink:href="#a"/>
  <use x="184.222656" y="647.5" xlink:href="#o"/>
  <use x="202.53125" y="647.5" xlink:href="#d"/>
  <use x="217.558594" y="647.5" xlink:href="#e"/>
  <use x="233.132812" y="647.5" xlink:href="#n"/>
  <use x="256.320312" y="647.5" xlink:href="#m"/>
  <use x="272.355469" y="647.5" xlink:href="#b"/>
  <use x="283.140625" y="647.5" xlink:href="#d"/>
  <use x="298.171875" y="647.5" xlink:href="#l"/>
  <use x="305.667969" y="647.5" xlink:href="#a"/>
  <use x="320.503906" y="647.5" xlink:href="#f"/>
  <use x="333.472656" y="647.5" xlink:href="#c"/>
 </g>
</svg>
