<svg width="20" height="17" viewBox="0 0 20 17" fill="none" xmlns="http://www.w3.org/2000/svg">
<path fill-rule="evenodd" clip-rule="evenodd" d="M19.5834 14.5456C19.8133 14.5456 20 14.7264 20 14.9496V16.5657C20 16.7889 19.8133 16.9697 19.5834 16.9697H0.41664C0.186658 16.9697 0 16.7889 0 16.5657V14.9496C0 14.7264 0.186664 14.5456 0.41664 14.5456H19.5834ZM19.5834 7.2728C19.8133 7.2728 20 7.4536 20 7.67682V9.29288C20 9.5161 19.8133 9.6969 19.5834 9.6969H0.41664C0.186658 9.6969 0 9.5161 0 9.29288V7.67682C0 7.4536 0.186664 7.2728 0.41664 7.2728H19.5834ZM19.5834 0C19.8133 0 20 0.180807 20 0.40402V2.02009C20 2.2433 19.8133 2.42411 19.5834 2.42411H0.41664C0.186658 2.42411 0 2.2433 0 2.02009V0.40402C0 0.180802 0.186664 0 0.41664 0H19.5834Z" fill="#24A8A6"/>
</svg>
