
<?xml version="1.0" encoding="UTF-8"?>
<svg width="1200pt" height="1200pt" version="1.1" viewBox="0 0 1200 1200" xmlns="http://www.w3.org/2000/svg">
 <path d="m886.8 1008c-6.9336 0.125-13.52-3.0352-17.762-8.5195-10.68-14.16-3.8398-38.16-1.5586-45.238v-0.003907c1.9375-5.3789 2.3906-11.18 1.3203-16.797-38.52-24-99.84-63.238-107.04-75.359v-0.003906c-4.6602-3.3281-9.9141-5.7344-15.48-7.0781-10.27-2.5234-19.801-7.4141-27.84-14.281-9.6016-9.6016-7.6797-24.961-5.8789-38.641h-0.003906c0.75-5.082 1.1094-10.219 1.082-15.359-15.043-3.918-28.684-11.984-39.359-23.277h-574.32c-6.6289 0-12-5.375-12-12v-48c0.015624-4.1719 2.1992-8.0312 5.7578-10.203 0 0 40.078-24 61.441-41.16 15.84-12 32.16-28.32 44.16-39.961l10.441-10.078c6.2383-5.7617 4.1992-21.121-14.281-42.719-10.441-12-19.32-24.719-14.281-36.719 5.0391-12 20.16-13.559 36-14.641 7.7812-0.78516 15.438-2.5195 22.801-5.1602 20.137-7.7344 41.727-10.93 63.238-9.3594h3.8398c40.32 3.1211 58.801 4.4414 74.879 20.641 4.9219 4.9219 25.199 2.5195 40.078 0.71875h0.003906c11.262-1.5 22.602-2.3008 33.961-2.4023 14.059 0.25781 27.836-3.9453 39.359-12 5.5195-3.1211 12-6.7188 19.801-10.32l15.961-7.1992c12.332-5.0352 24.355-10.805 36-17.277-0.046875-10.039-1.0898-20.051-3.1211-29.883-1.375-6.9141-0.57812-14.082 2.2773-20.527 2.8594-6.4414 7.6367-11.848 13.684-15.473-3.4844-3.6211-7.2539-6.9531-11.281-9.957-17.281-13.922-21.359-27.238-12.602-40.32 2.2812-3.4805 9.4805-14.16 49.801-37.68 12.52-10.516 23.613-22.617 33-36 10.414-14.16 22.191-27.262 35.16-39.121 23.281-19.32 76.199-39.84 78.359-40.801 1.3477-0.48828 2.7695-0.73047 4.2031-0.71875l186.96-3.1211c6.0234-0.058594 11.16 4.3555 12 10.32 2.0312 13.965 2.0312 28.152 0 42.121-2.082 14.664-0.55859 29.617 4.4414 43.559 12 15.602-5.6406 54.961-16.922 64.199-0.066406 9.6562 2.7773 19.105 8.1602 27.121 4.6641 9.4297 6.4766 20.012 5.2188 30.453-1.2578 10.445-5.5312 20.293-12.297 28.348-1.9062 2.3984-2.5312 5.5742-1.6797 8.5195 0.57422 1.6875 1.9805 2.957 3.7188 3.3594 2.6562 0.53906 5.3398 0.94141 8.0391 1.1992 5.1328-0.23438 10.129 1.6758 13.793 5.2734 3.6641 3.5938 5.668 8.5547 5.5273 13.688 0 6.2383 1.1992 132.96-2.6406 149.4-1.1992 5.3984-5.0391 18-9.9609 33.961-7.4414 24.719-17.762 58.801-21.602 76.559-4.9219 22.922-3.7188 96-3.1211 127.2v15.961h0.003906c-0.003906 5.8984-1.6758 11.672-4.8164 16.66-3.1406 4.9883-7.6289 8.9883-12.941 11.543 6.9336 6.3438 9.9922 15.883 8.0391 25.078-1.4414 5.0391-2.6406 9.8398-3.6016 14.281l7.4414-4.8008 3.4805-2.2812c25.945-11.684 54.246-17.191 82.68-16.078 19.367-4.7266 37.957-12.203 55.199-22.199 3.2812-2.4922 7.2852-3.8438 11.402-3.8438 4.1172 0 8.1211 1.3516 11.398 3.8438 5.5898 3.4453 10.086 8.4141 12.953 14.32 2.8711 5.9102 3.9961 12.512 3.2461 19.039-3 12-17.641 18.48-30.602 24h0.003906c-2.957 1.1484-5.8398 2.4727-8.6406 3.9609-15.48 9.2734-32.516 15.656-50.281 18.84-6.8477 1.8516-13.457 4.5078-19.68 7.918-11.621 6.2109-24.062 10.738-36.961 13.441l-19.199 3.1211c-21.359 3.4766-45.359 7.918-57.359 7.918zm-774.84-268.44h567.48c3.3828 0.007812 6.6094 1.4492 8.8789 3.9609 8.0781 9.4375 18.699 16.352 30.602 19.922 22.199 2.7617 19.199 27.121 17.398 41.762v-0.003906c-1.0469 6.2773-1.0469 12.684 0 18.961 5.4531 3.8984 11.605 6.707 18.121 8.2812 11.254 2.2148 21.344 8.3867 28.438 17.398 5.7617 7.1992 56.879 41.16 102.96 69.602 1.9648 1.2656 3.543 3.0508 4.5586 5.1602 4.5234 12.027 4.5234 25.289 0 37.32-2.6758 7.0312-3.5039 14.633-2.3984 22.078 11.16-0.71875 34.68-4.6797 53.641-7.8008l19.559-3.1211c10.543-2.4414 20.711-6.2734 30.242-11.398 8.4844-4.668 17.629-8.0273 27.117-9.9609 13.734-2.4922 27.008-7.0625 39.363-13.559 4.2734-2.7383 8.8164-5.0312 13.559-6.8398 5.8008-2.2578 11.352-5.1133 16.559-8.5195-1.1914-2.1953-2.7305-4.1797-4.5586-5.8789-13.801 8.0391-54.961 27.48-70.801 24-22.188 0.375-44.117 4.8477-64.68 13.199l-3.3594 2.2812c-18 12-27 17.16-36 15.238-3.6523-0.86328-6.8086-3.1562-8.7617-6.3594-1.6797-2.8789-5.7617-9.6016 4.0781-44.281h0.003907c-1.2578-1.8281-2.707-3.5195-4.3203-5.0391-3.4844-2.6367-6.0273-6.3242-7.2578-10.512-1.2305-4.1914-1.0859-8.668 0.41797-12.77 2.7422-4.7617 6.9492-8.5078 12-10.68 6.7188-3.6016 7.9219-4.8008 7.9219-8.5195v-15.48c-0.96094-55.68-1.1992-110.28 3.6016-132.72 4.0781-18.719 14.16-51.961 22.199-78.48 4.5586-15 8.3984-27.84 9.4805-32.52 2.5195-11.16 2.8789-118.32 2.2812-139.2l-0.003906-0.003906c-3.0742-0.3125-6.1211-0.83594-9.1211-1.5586-9.7227-2.1719-17.598-9.2734-20.762-18.719-3.6328-10.641-1.5977-22.398 5.4023-31.199 3.6641-4.2578 6.1133-9.4297 7.0859-14.961 0.96875-5.5352 0.42969-11.23-1.5664-16.48-9.9609-16.32-18.961-45.238-2.8789-58.32 6.7617-9.3867 10.902-20.402 12-31.918-8.8398-19.363-11.766-40.906-8.4023-61.922 1.3086-7.9297 1.5898-15.996 0.83984-24l-174.24 3.7188c-24.641 9.3242-48.152 21.402-70.082 36-11.57 11.035-22.133 23.086-31.559 36-10.953 15.785-24.316 29.758-39.602 41.402-33 19.32-40.441 28.078-42 30.359-1.5586 2.2812 0.71875 2.7617 7.0781 7.8008 12 9.4805 23.039 19.441 22.68 31.441l0.003906-0.003906c-0.29688 5.9453-3.418 11.387-8.3984 14.641-7.9219 5.5195-10.68 10.801-10.199 12 1.6797 6.2383 6.3594 36.719 1.8008 48-3.3594 7.9219-12.719 12.719-48 28.441l-15.719 7.0781c-7.0781 3.1211-12.602 6.3594-18 9.3594h-0.003906c-15.09 9.6641-32.727 14.594-50.641 14.16-10.121 0.21484-20.223 1.0547-30.238 2.5234-24 2.7617-46.68 5.5195-60-7.5586-9.4805-9.6016-20.281-10.68-60-13.68h-3.8398v-0.003906c-18.316-1.3008-36.688 1.5273-53.762 8.2812-9.1523 3.4727-18.711 5.7695-28.441 6.8398-4.5586 0-10.199 0.71875-14.039 1.3203 2.4062 3.6797 5.0938 7.1719 8.0391 10.438 31.078 36 26.762 62.879 12 76.078-2.6406 2.3984-6 5.7617-10.078 9.7188v0.003906c-14.508 14.664-29.77 28.562-45.719 41.641-17.641 13.922-45.84 31.801-57.961 39.238z"/>
</svg>
